# This file uses centimeters as units for non-parametric coordinates.

mtllib Gem.mtl
g default
v 0.828704 2.449451 -1.455488
v -0.828703 2.449451 -1.455489
v -1.657407 2.449451 -0.020132
v -0.828704 2.610201 1.305651
v 0.828703 2.610201 1.305651
v 1.657407 2.449451 -0.020132
v 0.000000 0.015934 -0.020132
v 0.000000 4.892550 -0.020132
v -0.217705 2.449451 -1.725341
v -0.666452 2.120909 1.314717
v 0.824074 2.192405 1.265971
v -0.292050 1.026688 -0.844342
v -0.384964 1.026688 -0.805255
v -0.859811 1.026688 -0.179315
v -0.872418 1.026688 -0.079304
v -0.567762 1.026688 0.644896
v -0.487454 1.026688 0.705819
v 0.292050 1.026688 0.804078
v 0.384964 1.026688 0.764991
v 0.859811 1.026688 0.139050
v 0.872418 1.026688 0.039040
v 0.567762 1.026688 -0.685160
v 0.487454 1.026688 -0.746083
v 0.442254 1.666931 -1.216100
v -0.814611 1.666931 -1.001119
v -1.256864 1.666931 0.194849
v -0.369241 1.519088 1.130607
v 0.812528 1.551260 0.893690
v 1.256864 1.666931 -0.235113
v 0.069337 0.571849 -0.570189
v -0.441695 0.571849 -0.355208
v -0.511031 0.571849 0.194849
v -0.069337 0.571849 0.529925
v 0.441695 0.571849 0.314944
v 0.511031 0.571849 -0.235113
v -0.539662 1.666931 -1.122552
v 0.432658 3.491962 -0.838513
v 0.132216 3.491962 -0.936352
v -0.414384 3.491962 -0.874176
v -0.582457 3.491962 -0.723044
v -0.432658 3.491962 0.798249
v -0.132216 3.491962 0.896088
v 0.492410 3.491962 0.763751
v 0.727362 3.491962 0.552481
v 0.925068 3.491962 -0.054630
v 0.859578 3.491962 -0.363739
v 0.799109 3.127083 -0.980260
v -0.431940 3.127083 -1.192245
v -0.799109 3.183346 0.901645
v 0.431941 3.183346 1.113630
v 1.231050 3.127083 0.191853
v 0.509063 3.982167 -0.477885
v -0.141894 3.982167 -0.689870
v -0.509063 3.982167 0.437621
v 0.141894 3.982167 0.649606
v 0.650957 3.982167 0.191853
v -0.218091 3.127083 -1.286693
v -0.829060 3.491962 -0.346724
v -0.872361 3.491962 -0.175297
v -0.873981 3.491962 0.255492
v -0.832070 3.491962 0.453312
v -0.506053 3.982167 -0.362416
v -1.086145 3.127083 -0.362416
v -1.179963 3.127083 0.009009
v -0.599871 3.982167 0.009009
vt 0.606341 0.514577
vt 0.696464 0.670420
vt 0.650800 0.673877
vt 0.729996 0.798611
vt 0.694554 0.808275
vt 0.012385 0.481968
vt 0.264107 0.213822
vt 0.310902 0.293039
vt 0.223195 0.386411
vt 0.204554 0.287128
vt 0.182319 0.546812
vt 0.214301 0.592602
vt 0.196571 0.667261
vt 0.133249 0.615085
vt 0.530603 0.669367
vt 0.584306 0.682995
vt 0.561347 0.725536
vt 0.490356 0.729704
vt 0.939610 0.522217
vt 0.838313 0.497133
vt 0.324922 0.291379
vt 0.329631 0.381865
vt 0.363159 0.382028
vt 0.202645 0.468741
vt 0.288580 0.467813
vt 0.266907 0.076329
vt 0.890850 0.584319
vt 0.815465 0.613446
vt 0.717174 0.524362
vt 0.831773 0.510037
vt 0.336741 0.466357
vt 0.890864 0.659512
vt 0.842443 0.721551
vt 0.762746 0.672046
vt 0.816696 0.626199
vt 0.123322 0.105617
vt 0.066928 0.213966
vt 0.800419 0.792524
vt 0.847762 0.732624
vt 0.180473 0.185334
vt 0.190541 0.283845
vt 0.860708 0.918625
vt 0.080807 0.226943
vt 0.312470 0.542179
vt 0.323443 0.591306
vt 0.290536 0.538756
vt 0.286958 0.657838
vt 0.251778 0.589378
vt 0.396156 0.675734
vt 0.350861 0.597813
vt 0.491674 0.556313
vt 0.447885 0.604442
vt 0.375627 0.829242
vt 0.630286 0.799503
vt 0.594635 0.832278
vt 0.525048 0.808664
vt 0.575819 0.758320
vt 0.658466 0.933842
vt 0.094928 0.633853
vt 0.519575 0.900389
vt 0.598608 0.870761
vt 0.531605 0.586734
vt 0.515325 0.651595
vt 0.445357 0.695887
vt 0.469860 0.617188
vt 0.593811 0.957623
vt 0.756030 0.964704
vt 0.407727 0.616909
vt 0.349262 0.684573
vt 0.437010 0.562006
vt 0.120202 0.722733
vt 0.514989 0.472355
vt 0.256785 0.812041
vt 0.058540 0.365707
vt 0.904207 0.818031
vt 0.515180 0.354882
vt 0.435984 0.269016
vt 0.931784 0.727459
vt 0.355154 0.193645
vt 0.996480 0.628517
vn -0.805153 -0.257090 0.534447
vn -0.805153 -0.257090 0.534447
vn -0.805153 -0.257090 0.534447
vn 0.016178 -0.030918 0.999391
vn 0.016178 -0.030918 0.999391
vn 0.016178 -0.030918 0.999391
vn 0.016178 -0.030918 0.999391
vn 0.843150 -0.060088 0.534311
vn 0.843150 -0.060088 0.534311
vn 0.843150 -0.060088 0.534311
vn 0.105922 -0.531695 -0.840286
vn 0.105922 -0.531695 -0.840287
vn 0.105922 -0.531695 -0.840287
vn 0.105922 -0.531695 -0.840287
vn 0.624862 0.542068 -0.561881
vn 0.624862 0.542068 -0.561881
vn 0.624862 0.542068 -0.561881
vn 0.624862 0.542067 -0.561881
vn -0.541252 0.560584 0.626732
vn -0.541252 0.560584 0.626732
vn -0.541252 0.560584 0.626732
vn -0.541252 0.560584 0.626732
vn -0.712970 -0.446244 -0.540869
vn -0.712970 -0.446244 -0.540869
vn -0.712970 -0.446244 -0.540869
vn -0.353856 -0.482564 -0.801198
vn -0.353856 -0.482564 -0.801198
vn -0.353856 -0.482564 -0.801198
vn -0.646689 -0.584053 -0.490587
vn -0.646689 -0.584053 -0.490587
vn -0.646689 -0.584053 -0.490587
vn 0.230269 -0.386881 -0.892916
vn 0.230269 -0.386881 -0.892916
vn 0.230269 -0.386881 -0.892916
vn -0.076682 -0.588464 -0.804879
vn -0.076682 -0.588463 -0.804879
vn -0.076682 -0.588463 -0.804879
vn -0.339693 -0.482259 -0.807487
vn -0.339693 -0.482259 -0.807487
vn -0.339693 -0.482259 -0.807487
vn -0.085858 -0.424811 -0.901201
vn -0.085858 -0.424811 -0.901201
vn -0.085858 -0.424811 -0.901201
vn -0.293463 -0.653639 -0.697592
vn -0.293463 -0.653639 -0.697592
vn -0.293463 -0.653639 -0.697592
vn -0.293462 -0.653639 -0.697592
vn -0.293462 -0.653639 -0.697592
vn -0.293462 -0.653640 -0.697592
vn -0.293463 -0.653639 -0.697592
vn -0.293463 -0.653639 -0.697592
vn -0.293464 -0.653639 -0.697592
vn -0.780670 -0.531695 0.328412
vn -0.780670 -0.531695 0.328412
vn -0.780670 -0.531695 0.328412
vn -0.780670 -0.531695 0.328412
vn -0.355723 -0.474077 -0.805427
vn -0.355723 -0.474077 -0.805427
vn -0.355723 -0.474077 -0.805427
vn -0.355723 -0.474077 -0.805427
vn -0.103959 -0.555903 0.824721
vn -0.103959 -0.555903 0.824721
vn -0.103959 -0.555903 0.824721
vn -0.103959 -0.555903 0.824721
vn -0.828140 -0.292538 -0.478127
vn -0.828140 -0.292538 -0.478127
vn -0.828140 -0.292538 -0.478127
vn -0.812963 -0.498715 -0.300623
vn -0.812963 -0.498715 -0.300623
vn -0.812963 -0.498715 -0.300623
vn -0.872193 -0.476647 -0.109943
vn -0.872193 -0.476647 -0.109943
vn -0.872193 -0.476647 -0.109943
vn -0.877058 -0.354378 -0.324324
vn -0.877058 -0.354378 -0.324324
vn -0.877058 -0.354378 -0.324324
vn -0.750865 -0.653639 -0.094649
vn -0.750865 -0.653639 -0.094649
vn -0.750865 -0.653639 -0.094649
vn -0.750865 -0.653639 -0.094648
vn -0.750865 -0.653639 -0.094648
vn -0.750865 -0.653639 -0.094648
vn -0.750865 -0.653639 -0.094649
vn -0.750865 -0.653639 -0.094649
vn -0.750865 -0.653639 -0.094649
vn 0.665299 -0.550137 0.504705
vn 0.665299 -0.550137 0.504705
vn 0.665299 -0.550137 0.504705
vn 0.665299 -0.550137 0.504705
vn -0.804232 -0.265591 0.531670
vn -0.804232 -0.265591 0.531670
vn -0.804232 -0.265591 0.531670
vn -0.732463 -0.402279 0.549244
vn -0.732463 -0.402279 0.549244
vn -0.732463 -0.402279 0.549244
vn -0.531311 -0.476647 0.700369
vn -0.531311 -0.476647 0.700369
vn -0.531311 -0.476647 0.700369
vn -0.531311 -0.476647 0.700368
vn -0.531311 -0.476647 0.700368
vn -0.531311 -0.476647 0.700368
vn -0.457402 -0.653639 0.602942
vn -0.457402 -0.653639 0.602942
vn -0.457402 -0.653639 0.602942
vn -0.457401 -0.653639 0.602943
vn -0.457401 -0.653639 0.602943
vn -0.457401 -0.653639 0.602943
vn -0.457402 -0.653639 0.602942
vn -0.457402 -0.653639 0.602942
vn -0.457402 -0.653639 0.602942
vn 0.780670 -0.531695 -0.328412
vn 0.780670 -0.531695 -0.328412
vn 0.780670 -0.531695 -0.328412
vn 0.780670 -0.531695 -0.328412
vn 0.044488 -0.272093 0.961242
vn 0.044488 -0.272093 0.961242
vn 0.044488 -0.272093 0.961242
vn 0.183638 -0.496071 0.848641
vn 0.183638 -0.496070 0.848641
vn 0.183638 -0.496070 0.848641
vn 0.193354 -0.348519 0.917142
vn 0.193354 -0.348519 0.917142
vn 0.193354 -0.348519 0.917142
vn 0.340883 -0.476647 0.810313
vn 0.340883 -0.476647 0.810313
vn 0.340883 -0.476647 0.810313
vn 0.293463 -0.653639 0.697592
vn 0.293463 -0.653639 0.697592
vn 0.293463 -0.653639 0.697592
vn 0.293462 -0.653639 0.697592
vn 0.293462 -0.653639 0.697592
vn 0.293462 -0.653640 0.697592
vn 0.293464 -0.653639 0.697592
vn 0.293464 -0.653639 0.697592
vn 0.293464 -0.653639 0.697592
vn 0.457402 -0.653639 -0.602942
vn 0.457402 -0.653639 -0.602942
vn 0.457402 -0.653639 -0.602942
vn 0.457402 -0.653639 -0.602942
vn 0.457402 -0.653639 -0.602942
vn 0.457402 -0.653639 -0.602942
vn 0.457402 -0.653639 -0.602942
vn 0.457402 -0.653639 -0.602942
vn 0.457402 -0.653639 -0.602942
vn 0.828140 -0.292538 -0.478127
vn 0.828140 -0.292538 -0.478127
vn 0.828140 -0.292538 -0.478127
vn 0.666829 -0.498715 -0.553735
vn 0.666829 -0.498715 -0.553735
vn 0.666829 -0.498715 -0.553735
vn 0.531311 -0.476647 -0.700369
vn 0.531311 -0.476647 -0.700369
vn 0.531311 -0.476647 -0.700369
vn 0.719402 -0.354378 -0.597391
vn 0.719402 -0.354378 -0.597391
vn 0.719403 -0.354378 -0.597391
vn 0.828140 -0.292538 0.478127
vn 0.828140 -0.292538 0.478127
vn 0.828140 -0.292538 0.478127
vn 0.823733 -0.496734 0.273349
vn 0.823733 -0.496734 0.273349
vn 0.823733 -0.496734 0.273348
vn 0.872193 -0.476647 0.109943
vn 0.872193 -0.476647 0.109943
vn 0.872193 -0.476647 0.109943
vn 0.878588 -0.364585 0.308483
vn 0.878588 -0.364585 0.308483
vn 0.878588 -0.364585 0.308483
vn 0.750865 -0.653639 0.094649
vn 0.750865 -0.653639 0.094649
vn 0.750865 -0.653639 0.094649
vn 0.750865 -0.653638 0.094649
vn 0.750865 -0.653638 0.094649
vn 0.750865 -0.653638 0.094649
vn 0.750865 -0.653639 0.094649
vn 0.750865 -0.653639 0.094649
vn 0.750865 -0.653639 0.094649
vn -0.312892 0.632615 -0.708447
vn -0.312892 0.632615 -0.708447
vn -0.312892 0.632615 -0.708447
vn -0.103587 0.399968 -0.910657
vn -0.103587 0.399968 -0.910657
vn -0.103587 0.399968 -0.910657
vn -0.077460 0.728203 -0.680970
vn -0.077460 0.728203 -0.680970
vn -0.077460 0.728203 -0.680970
vn -0.727460 0.493512 -0.476706
vn -0.727460 0.493512 -0.476706
vn -0.727460 0.493512 -0.476706
vn -0.727460 0.493512 -0.476706
vn 0.259473 0.545723 -0.796781
vn 0.259473 0.545723 -0.796781
vn 0.259473 0.545723 -0.796781
vn 0.259473 0.545723 -0.796781
vn 0.259473 0.545723 -0.796781
vn 0.259473 0.545723 -0.796781
vn 0.259473 0.545723 -0.796781
vn 0.259473 0.545723 -0.796781
vn 0.259473 0.545723 -0.796781
vn 0.211571 0.531192 -0.820410
vn 0.211571 0.531192 -0.820410
vn 0.211571 0.531192 -0.820410
vn 0.227763 0.551703 -0.802339
vn 0.227763 0.551703 -0.802339
vn 0.227763 0.551703 -0.802339
vn 0.256011 0.562516 -0.786151
vn 0.256011 0.562516 -0.786151
vn 0.256011 0.562516 -0.786151
vn 0.256011 0.562516 -0.786151
vn 0.256011 0.562516 -0.786151
vn 0.256011 0.562516 -0.786151
vn -0.347669 0.509370 -0.787190
vn -0.347669 0.509370 -0.787190
vn -0.347669 0.509370 -0.787190
vn -0.347669 0.509370 -0.787190
vn 0.174294 0.541156 0.822661
vn 0.174294 0.541156 0.822661
vn 0.174294 0.541156 0.822661
vn 0.174294 0.541156 0.822661
vn 0.799034 0.542068 0.260206
vn 0.799034 0.542068 0.260206
vn 0.799034 0.542068 0.260206
vn 0.799034 0.542068 0.260206
vn -0.259472 0.545723 0.796781
vn -0.259472 0.545723 0.796781
vn -0.259472 0.545723 0.796781
vn -0.259472 0.545723 0.796781
vn -0.259472 0.545723 0.796781
vn -0.259472 0.545723 0.796781
vn -0.259472 0.545723 0.796781
vn -0.259472 0.545723 0.796781
vn -0.259472 0.545723 0.796781
vn -0.000000 0.317676 0.948199
vn -0.000000 0.317676 0.948199
vn -0.000000 0.317676 0.948199
vn -0.080642 0.471574 0.878132
vn -0.080642 0.471574 0.878131
vn -0.080642 0.471574 0.878131
vn -0.255311 0.565823 0.784003
vn -0.255311 0.565823 0.784003
vn -0.255311 0.565823 0.784003
vn -0.255312 0.565822 0.784003
vn -0.255312 0.565822 0.784003
vn -0.255312 0.565822 0.784003
vn 0.807252 0.362112 -0.466067
vn 0.807252 0.362112 -0.466067
vn 0.807252 0.362112 -0.466067
vn 0.793362 0.486591 -0.365796
vn 0.793362 0.486591 -0.365796
vn 0.793361 0.486591 -0.365796
vn 0.808833 0.562515 -0.171363
vn 0.808833 0.562515 -0.171363
vn 0.808833 0.562515 -0.171363
vn 0.808833 0.562516 -0.171363
vn 0.808833 0.562516 -0.171363
vn 0.808833 0.562515 -0.171363
vn 0.819769 0.545723 -0.173681
vn 0.819769 0.545723 -0.173681
vn 0.819769 0.545723 -0.173681
vn 0.819769 0.545723 -0.173681
vn 0.819769 0.545723 -0.173681
vn 0.819769 0.545723 -0.173681
vn 0.819769 0.545723 -0.173681
vn 0.819769 0.545723 -0.173681
vn 0.819769 0.545723 -0.173681
vn 0.560297 0.545723 0.623100
vn 0.560297 0.545723 0.623100
vn 0.560296 0.545723 0.623100
vn 0.560296 0.545723 0.623100
vn 0.560296 0.545723 0.623100
vn 0.560296 0.545723 0.623100
vn 0.560296 0.545723 0.623101
vn 0.560296 0.545723 0.623101
vn 0.560296 0.545723 0.623101
vn 0.808837 0.364578 0.461373
vn 0.808837 0.364578 0.461373
vn 0.808837 0.364578 0.461373
vn 0.713563 0.500634 0.490096
vn 0.713563 0.500634 0.490096
vn 0.713563 0.500634 0.490096
vn 0.544684 0.580002 0.605737
vn 0.544684 0.580002 0.605737
vn 0.544684 0.580002 0.605737
vn 0.544683 0.580001 0.605738
vn 0.544683 0.580001 0.605738
vn 0.544683 0.580002 0.605738
vn -0.560297 0.545723 -0.623100
vn -0.560297 0.545723 -0.623100
vn -0.560297 0.545723 -0.623100
vn -0.560297 0.545723 -0.623100
vn -0.560297 0.545723 -0.623100
vn -0.560297 0.545723 -0.623100
vn -0.560296 0.545723 -0.623100
vn -0.560296 0.545723 -0.623101
vn -0.560296 0.545723 -0.623100
vn -0.781495 0.430914 -0.451196
vn -0.781495 0.430914 -0.451196
vn -0.781495 0.430914 -0.451196
vn -0.713502 0.507746 -0.482814
vn -0.713502 0.507746 -0.482814
vn -0.713502 0.507746 -0.482814
vn -0.552822 0.562516 -0.614788
vn -0.552822 0.562516 -0.614788
vn -0.552822 0.562516 -0.614788
vn -0.552821 0.562515 -0.614789
vn -0.552821 0.562515 -0.614789
vn -0.552821 0.562515 -0.614789
vn -0.827536 0.561404 -0.003114
vn -0.827536 0.561404 -0.003114
vn -0.827536 0.561404 -0.003114
vn -0.827536 0.561404 -0.003114
vn -0.754128 0.513749 0.409089
vn -0.754128 0.513748 0.409089
vn -0.754128 0.513748 0.409089
vn -0.818106 0.422553 0.390067
vn -0.818106 0.422553 0.390067
vn -0.818106 0.422553 0.390067
vn -0.959907 0.192922 0.203371
vn -0.959907 0.192922 0.203371
vn -0.959907 0.192922 0.203371
vn -0.959907 0.192920 0.203371
vn -0.959907 0.192920 0.203371
vn -0.959907 0.192920 0.203371
vn -0.819769 0.545723 0.173683
vn -0.819769 0.545723 0.173683
vn -0.819769 0.545723 0.173683
vn -0.819769 0.545723 0.173680
vn -0.819769 0.545723 0.173680
vn -0.819769 0.545723 0.173680
vn -0.819769 0.545723 0.173681
vn -0.819769 0.545723 0.173681
vn -0.819769 0.545723 0.173681
vn -0.819950 0.533654 -0.207112
vn -0.819950 0.533654 -0.207112
vn -0.819950 0.533654 -0.207112
vn -0.819951 0.533654 -0.207111
vn -0.819951 0.533654 -0.207111
vn -0.819951 0.533654 -0.207111
vn -0.819951 0.533654 -0.207111
vn -0.819950 0.533654 -0.207111
vn -0.819950 0.533654 -0.207111
vn -0.796654 0.569957 -0.201226
vn -0.796654 0.569957 -0.201226
vn -0.796654 0.569957 -0.201226
vn -0.796653 0.569957 -0.201226
vn -0.796653 0.569957 -0.201226
vn -0.796653 0.569957 -0.201226
vn -0.796654 0.569957 -0.201226
vn -0.796654 0.569957 -0.201226
vn -0.796654 0.569957 -0.201226
s off
g Gem
usemtl phong3SG
f 3/1/1 10/2/2 4/3/3
f 10/2/4 11/4/5 5/5/6 4/3/7
f 11/4/8 6/67/9 5/5/10
f 30/7/11 12/8/12 24/9/13 23/10/14
f 47/11/15 37/12/16 52/13/17 46/14/18
f 61/15/19 49/16/20 41/17/21 54/18/22
f 31/79/23 14/77/24 13/21/25
f 36/22/26 13/21/27 25/23/28
f 13/21/29 14/77/30 25/23/31
f 1/24/32 24/9/33 9/25/34
f 9/25/35 24/9/36 36/22/37
f 13/21/38 36/22/39 12/8/40
f 24/9/41 12/8/42 36/22/43
f 7/26/44 31/79/45 30/7/46
f 13/21/47 12/8/48 31/79/49
f 31/79/50 12/8/51 30/7/52
f 32/27/53 16/28/54 26/29/55 15/30/56
f 9/25/57 36/22/58 25/23/59 2/31/60
f 33/32/61 18/33/62 27/34/63 17/35/64
f 2/31/65 25/23/66 3/72/67
f 3/72/68 25/23/69 26/76/70
f 15/30/71 26/29/72 14/20/73
f 25/23/74 14/77/75 26/76/76
f 7/80/77 32/27/78 31/19/79
f 15/30/80 14/20/81 32/27/82
f 32/27/83 14/20/84 31/19/85
f 34/78/86 20/75/87 28/38/88 19/39/89
f 3/1/90 26/29/91 10/2/92
f 26/29/93 16/28/94 10/2/95
f 16/28/96 17/35/97 10/2/98
f 17/35/99 27/34/100 10/2/101
f 7/80/102 33/32/103 32/27/104
f 17/35/105 16/28/106 33/32/107
f 33/32/108 16/28/109 32/27/110
f 35/40/111 22/41/112 29/74/113 21/43/114
f 10/2/115 27/34/116 11/4/117
f 11/4/118 27/34/119 28/38/120
f 27/34/121 18/33/122 28/38/123
f 18/33/124 19/39/125 28/38/126
f 7/80/127 34/78/128 33/32/129
f 19/39/130 18/33/131 34/78/132
f 34/78/133 18/33/134 33/32/135
f 7/26/136 30/7/137 35/40/138
f 23/10/139 22/41/140 30/7/141
f 30/7/142 22/41/143 35/40/144
f 6/6/145 29/74/146 1/24/147
f 1/24/148 29/74/149 24/9/150
f 23/10/151 24/9/152 22/41/153
f 29/74/154 22/41/155 24/9/156
f 11/4/157 28/38/158 6/67/159
f 6/67/160 28/38/161 29/42/162
f 21/43/163 29/74/164 20/37/165
f 28/38/166 20/75/167 29/42/168
f 7/26/169 35/40/170 34/36/171
f 21/43/172 20/37/173 35/40/174
f 35/40/175 20/37/176 34/36/177
f 48/44/178 39/45/179 57/46/180
f 53/47/181 38/48/182 39/45/183
f 39/45/184 38/48/185 57/46/186
f 62/69/187 40/50/188 63/70/189 58/68/190
f 37/12/191 38/48/192 52/13/193
f 8/73/194 52/13/195 53/47/196
f 52/13/197 38/48/198 53/47/199
f 9/25/200 57/46/201 1/24/202
f 57/46/203 38/48/204 1/24/205
f 38/48/206 37/12/207 1/24/208
f 37/12/209 47/11/210 1/24/211
f 2/31/212 48/44/213 57/46/214 9/25/215
f 50/54/216 43/55/217 55/56/218 42/57/219
f 51/58/220 45/66/221 56/60/222 44/61/223
f 42/57/224 55/56/225 41/17/226
f 8/53/227 54/18/228 55/56/229
f 54/18/230 41/17/231 55/56/232
f 5/5/233 50/54/234 4/3/235
f 50/54/236 42/57/237 4/3/238
f 42/57/239 41/17/240 4/3/241
f 41/17/242 49/16/243 4/3/244
f 1/24/245 47/11/246 6/6/247
f 47/11/248 46/14/249 6/6/250
f 46/14/251 45/59/252 6/6/253
f 45/66/254 51/58/255 6/67/256
f 46/14/257 52/13/258 45/59/259
f 8/73/260 56/71/261 52/13/262
f 56/71/263 45/59/264 52/13/265
f 44/61/266 56/60/267 43/55/268
f 8/53/269 55/56/270 56/60/271
f 55/56/272 43/55/273 56/60/274
f 6/67/275 51/58/276 5/5/277
f 51/58/278 44/61/279 5/5/280
f 44/61/281 43/55/282 5/5/283
f 43/55/284 50/54/285 5/5/286
f 40/50/287 62/69/288 39/45/289
f 8/73/290 53/47/291 62/69/292
f 53/47/293 39/45/294 62/69/295
f 3/72/296 63/70/297 2/31/298
f 63/70/299 40/50/300 2/31/301
f 40/50/302 39/45/303 2/31/304
f 39/45/305 48/44/306 2/31/307
f 64/62/308 60/63/309 65/64/310 59/65/311
f 3/1/312 4/3/313 64/62/314
f 64/62/315 4/3/316 60/63/317
f 60/63/318 4/3/319 61/15/320
f 4/3/321 49/16/322 61/15/323
f 60/63/324 61/15/325 65/64/326
f 8/53/327 65/64/328 54/18/329
f 65/64/330 61/15/331 54/18/332
f 59/65/333 65/64/334 58/52/335
f 8/53/336 62/49/337 65/64/338
f 62/49/339 58/52/340 65/64/341
f 58/52/342 63/51/343 59/65/344
f 3/1/345 64/62/346 63/51/347
f 64/62/348 59/65/349 63/51/350
