P3
# Created by GIMP version 2.10.18 PNM plug-in
4 4
255
255
0
0
255
255
255
255
255
255
0
255
0
255
255
255
255
0
0
255
255
255
255
255
255
255
255
255
255
255
255
0
0
255
255
255
255
0
255
0
255
255
255
255
255
255
0
0
255
